<svg id="Layer_1" data-name="Layer 1" xmlns="http://www.w3.org/2000/svg" viewBox="0 0 308.07 308.07"><defs><style>.cls-1{fill:#1d1d1b;}.cls-2{fill:#fff;}.cls-3,.cls-4,.cls-7,.cls-8,.cls-9{fill:#d06128;}.cls-4{opacity:0.14;}.cls-5,.cls-6{fill:none;stroke:#d06128;stroke-linecap:round;stroke-miterlimit:10;}.cls-5{stroke-width:6.37px;}.cls-6{stroke-width:2.18px;}.cls-7{opacity:0.22;}.cls-8{opacity:0.33;}.cls-9{opacity:0.31;}</style></defs><circle class="cls-1" cx="154.03" cy="154.03" r="153.99"/><path class="cls-2" d="M253.31,57.59,257.15,61q3.47,3.08.08,6.91l-2.61,3A4.27,4.27,0,0,1,249.44,72L244.6,83.85l-2.47-2.18,5.11-11-1-.65-7.57,8.57-2.24-2Zm.3,4.17L248.1,68l1,.84a4.22,4.22,0,0,0,1,.72,2,2,0,0,0,2.32-.69l2.61-3c1-1.1.94-2.1-.07-3Z" transform="translate(-10.77 -10.72)"/><path class="cls-2" d="M273.59,97.82l-2.46,1.62-2.86-4.34-6.95,4.58,3.32,5-2.45,1.61-5-7.53,21.26-14,5,7.54L281,94l-3.32-5-6.95,4.57Z" transform="translate(-10.77 -10.72)"/><path class="cls-2" d="M295.16,116.56l1,2.91-16,9.8,17.32-5.69.88,2.55-24.17,7.94-.95-2.9,15.63-9.53-16.93,5.56-.89-2.7Z" transform="translate(-10.77 -10.72)"/><path class="cls-2" d="M303.77,162.24l-2.92.16-.2-3.54-22.48,1.24-.16-3,22.48-1.24-.2-3.54,2.93-.16Z" transform="translate(-10.77 -10.72)"/><path class="cls-2" d="M283.67,194.08l-8.92-.61.61-3,5.6.4.92-4.47-5.31-1.85.61-2.95,8.39,2.91,15.78,5.91-.91,4.42Zm.25-3,14.47,1-13.71-4.75Z" transform="translate(-10.77 -10.72)"/><path class="cls-2" d="M268,212l22.74,11.4-1.33,2.67L269.31,216l-2.7,5.39L264,220.06Z" transform="translate(-10.77 -10.72)"/><path class="cls-2" d="M253.11,249.54l-7.42-5,2-2.28,4.66,3.14,3-3.41-3.67-4.25,2-2.26,5.83,6.71,10.72,13-3,3.38Zm1.71-2.46,12,8.11-9.51-10.95Z" transform="translate(-10.77 -10.72)"/><path class="cls-2" d="M224.88,266.63q-2.77-4.29,1.45-7.05t7,1.57l11.29,17.42-2.51,1.63-11.28-17.43a1.87,1.87,0,0,0-2.91-.71c-1.15.74-1.33,1.72-.54,2.95l11.29,17.42-2.51,1.62Z" transform="translate(-10.77 -10.72)"/><path class="cls-2" d="M211.21,295.76,206,297.39q-4.43,1.38-6-3.5l-4.56-14.51q-1.53-4.86,3.13-6.35l4.94-1.55Zm-3.73-1.91-5.87-18.68-2,.62q-1.94.61-1.29,2.7l4.57,14.5c.43,1.4,1.3,1.89,2.6,1.48Z" transform="translate(-10.77 -10.72)"/><path class="cls-2" d="M175.09,303.28l-3,.19-1.63-25.4,3-.19Z" transform="translate(-10.77 -10.72)"/><path class="cls-2" d="M139,280.17q.9-5,5.86-4.15c3.31.6,4.66,2.57,4.06,5.93l-2.83,15.82c-.6,3.34-2.56,4.72-5.86,4.13s-4.66-2.56-4.06-5.91Zm.1,16.35a1.87,1.87,0,0,0,1.63,2.49h0c1.34.24,2.13-.36,2.39-1.78L146,281.42a2.06,2.06,0,1,0-4-.72Z" transform="translate(-10.77 -10.72)"/><path class="cls-2" d="M113.82,266.12l4.07,1.95-4.82,16.12-2.78,8.47-2.71-1.31,7.18-21.94-12.63,19.33-2.74-1.31L104.3,280Z" transform="translate(-10.77 -10.72)"/><path class="cls-2" d="M77.78,273l-2.31-1.89L91.6,251.45l2.31,1.89Z" transform="translate(-10.77 -10.72)"/><path class="cls-2" d="M60.31,249.16q-4.1,3-7.11-1t1.08-7.1l2.51-1.87,1.79,2.39-2.52,1.88a1.86,1.86,0,0,0-.51,2.93v0a1.87,1.87,0,0,0,3,.34l1.92-1.43c1-.78,1.53-2.7,1.46-5.74q-.07-4.15,2.59-6.15l2.66-2q4.09-3.06,7.11,1c2,2.7,1.65,5.07-1.08,7.11l-2.51,1.88L68.88,239l2.51-1.88a1.88,1.88,0,0,0,.51-3,1.86,1.86,0,0,0-3-.33l-2.4,1.79c-1.13.84-1.66,2.79-1.6,5.83a7,7,0,0,1-2.66,6.2Z" transform="translate(-10.77 -10.72)"/><path class="cls-2" d="M53,203.12q4.75-1.86,6.61,2.83t-3,6.56l-19.33,7.55-1.09-2.78,19.34-7.55A2.06,2.06,0,1,0,54,205.9L34.7,213.46l-1.09-2.78Z" transform="translate(-10.77 -10.72)"/><path class="cls-2" d="M42.64,172.51l8.69-2.1.31,3-5.46,1.31.48,4.53,5.61.17.31,3-8.88-.24-16.82-.88-.47-4.49Zm.65,2.92-14.1,3.38,14.5.39Z" transform="translate(-10.77 -10.72)"/><path class="cls-2" d="M52.13,150.72l-25.13-4,.47-3,22.24,3.55.95-6,2.89.46Z" transform="translate(-10.77 -10.72)"/><path class="cls-3" d="M59.49,112.32q4.11,1.83,2.06,6.44t-6.17,2.76l-12.9-5.77q-4.11-1.83-2-6.43t6.16-2.77l2.52,1.13-1.21,2.73-2.53-1.13a1.74,1.74,0,0,0-2.57,1.08v0A1.75,1.75,0,0,0,43.7,113l12.9,5.76A2.06,2.06,0,0,0,58.28,115L53,112.69l-.78,1.74-2.35-1.05,2-4.47Z" transform="translate(-10.77 -10.72)"/><path class="cls-3" d="M77.21,86.2Q80.69,89,77.5,93t-6.68,1L56.69,82.41l1.9-2.31L72.71,91.69a2.06,2.06,0,0,0,2.61-3.18L61.19,76.92l1.89-2.3Z" transform="translate(-10.77 -10.72)"/><path class="cls-3" d="M99.05,62.75l5.45,5.7L102,70.19l-3.42-3.58-3.73,2.62,2.2,4.44L94.6,75.39l-3.51-7L84.83,54.89l3.69-2.59Zm-2.26,2L88,55.43l5.72,11.46Z" transform="translate(-10.77 -10.72)"/><path class="cls-3" d="M114.56,38.44l2.89-1,9.45,13.73L121.53,36l2.53-.94,7.49,21.1-2.89,1-9.17-13.38,5.24,14.78-2.68.95Z" transform="translate(-10.77 -10.72)"/><path class="cls-3" d="M161.09,43.47l1.74,7.68-3,.22-1.09-4.83-4.55.32-.39,4.94-3,.21.61-7.82L153,29.4l4.5-.32Zm-2.94.5-2.8-12.49-1,12.76Z" transform="translate(-10.77 -10.72)"/><path class="cls-3" d="M192.89,50.49q-.88,4.41-5.83,3.43T183,48.51l2.77-13.86q.89-4.41,5.83-3.42t4,5.4l-.54,2.71-2.93-.58.55-2.72c.25-1.25-.29-2-1.63-2.27h0c-1.34-.26-2.13.23-2.38,1.48L185.94,49.1c-.26,1.25.29,2,1.63,2.29A1.77,1.77,0,0,0,190,49.9l.54-2.7,2.93.59Z" transform="translate(-10.77 -10.72)"/><path class="cls-3" d="M222,62q-2,4-6.53,1.76T213,57.44l6.35-12.63q2-4,6.52-1.75t2.48,6.28Zm3.68-14a1.74,1.74,0,0,0-1-2.62l0,0a1.76,1.76,0,0,0-2.69.79l-6.35,12.63a2.06,2.06,0,0,0,3.67,1.85Z" transform="translate(-10.77 -10.72)"/><path class="cls-3" d="M175.4,104.14a.74.74,0,0,0-.36-.69,1.16,1.16,0,0,0-.92-.08l-3.5,1.09,1.94-10.79L180.39,91l-3.21,11.53a.72.72,0,0,0,.29.79,1.11,1.11,0,0,0,1,.1l2.29-.78c-1.95,3.42-4.46,7.8-6.3,11C174.68,111.53,175,108.51,175.4,104.14Z" transform="translate(-10.77 -10.72)"/><path class="cls-3" d="M109,227.8a2.39,2.39,0,0,1-2.76-3.58c9.94-15,26.44-23.3,38-23.53-.94-3.31-1.92-8.36-.74-12.65,1.48-5.4-1.06-16.26-3.33-22.26s-5.71-19.79-2.85-29.85a5.41,5.41,0,0,1-4.72-1.19c-1.45-1.28-3.55-4.57-1.29-12.31,2.6-8.87,12.56-23.83,15.08-25.83a2.39,2.39,0,0,1,3,3.74c-1.62,1.39-11,15.11-13.47,23.44-1.38,4.71-.7,6.88-.15,7.36.28.25.76.08,1,0,2.33-1.05,3.75-.42,4.54.27,1.72,1.51,1.15,4,.93,4.78-2.9,8.31-.16,21.24,2.37,27.93,2.43,6.38,5.35,18.37,3.47,25.22-1.45,5.3,1.72,13,1.76,13.06l1.66,4-4.24-.68c-10.06-1.6-27.35,6.54-37.07,21.21A2.3,2.3,0,0,1,109,227.8Z" transform="translate(-10.77 -10.72)"/><path class="cls-4" d="M150.86,208.91c-1.69-.29-19.08-4.13-36.37,17.82l0,0a3.25,3.25,0,0,0,4.53-.22c16.38-17.72,31.82-17.62,31.82-17.62Z" transform="translate(-10.77 -10.72)"/><path class="cls-3" d="M153.33,110.9a2.39,2.39,0,0,1-2.62-.74c-.39-.47-9.51-11.72-2.52-25.4,6.27-12.28,18.36-22.43,22.81-21.05a2.77,2.77,0,0,1,1.73,1.58c.71,1.73-.26,3.55-2.6,8-3.32,6.26-8.87,16.74-7.56,25.43a2.39,2.39,0,1,1-4.72.72c-1.55-10.26,4.47-21.61,8.06-28.39l.36-.67a49.17,49.17,0,0,0-13.82,16.6c-5.58,10.9,1.87,20.08,1.94,20.18a2.39,2.39,0,0,1-.31,3.36A2.44,2.44,0,0,1,153.33,110.9ZM170,68.33Z" transform="translate(-10.77 -10.72)"/><path class="cls-3" d="M187.87,86a2,2,0,0,1-2.16-3.27c4.08-4.55,4.24-10.47,3.44-15.12-4,7-12,16.61-12.34,17a2,2,0,1,1-3.12-2.58c.09-.11,9.26-11.2,12.69-17.83a3.42,3.42,0,0,1,6.38.79c1.09,4.73,2,13.66-4,20.41A2,2,0,0,1,187.87,86Z" transform="translate(-10.77 -10.72)"/><path class="cls-3" d="M181.78,127c-8.43,2.88-14.71-3-15-3.31a1.79,1.79,0,0,1,2.48-2.58c.25.24,5.8,5.36,12.86,1.89a37.4,37.4,0,0,0,8-5.74c3.79-3.29,7.37-6.4,12.45-5.64,4.05.6,8.65,1.28,10.22-.19.61-.57.86-1.64.74-3.18a1.79,1.79,0,1,1,3.56-.28c.21,2.68-.41,4.72-1.86,6.08-2.84,2.63-7.86,1.89-13.19,1.1-3.45-.51-6.15,1.83-9.58,4.81a40.38,40.38,0,0,1-8.75,6.25A15.28,15.28,0,0,1,181.78,127Z" transform="translate(-10.77 -10.72)"/><path class="cls-3" d="M207.29,247.51a2.44,2.44,0,0,1-2.72-3.81c.25-.33,25.24-33,6.87-63.15a203.64,203.64,0,0,0-13.9-19.89c-7-9.16-12.62-16.39-17.59-33.54a2.38,2.38,0,0,1,1.66-3,2.44,2.44,0,0,1,3,1.67c4.72,16.26,9.77,22.83,16.77,31.92A207.29,207.29,0,0,1,215.61,178c20.15,33-6.92,68.34-7.19,68.7A2.48,2.48,0,0,1,207.29,247.51Z" transform="translate(-10.77 -10.72)"/><path class="cls-3" d="M207.09,99.24s3.07.38,4.46,1.51,3-1.11.58-3.23S204,98,207.09,99.24Z" transform="translate(-10.77 -10.72)"/><path class="cls-5" d="M211.16,111.39" transform="translate(-10.77 -10.72)"/><path class="cls-3" d="M195,254.1a81.4,81.4,0,0,1-52.63-154,3.19,3.19,0,1,1,2.06,6,75,75,0,1,0,68.45,10.36,3.19,3.19,0,0,1,3.75-5.15A81.4,81.4,0,0,1,195,254.1Z" transform="translate(-10.77 -10.72)"/><path class="cls-6" d="M130.58,232" transform="translate(-10.77 -10.72)"/><path class="cls-7" d="M205,177.18c-20.81-27.06-26.12-40.79-26.93-44.9l-.26-.17A20.07,20.07,0,0,1,169.7,131l.07.25a3.21,3.21,0,0,0,3.58,2.33h0a.23.23,0,0,1,.27.18c5.38,15.69,18.73,34.31,25.31,43a34.31,34.31,0,0,1,6.62,15.29c2.27,14.42-.05,40.55-39.91,56.13,0,0,15.82-.15,27.16-4.67a34.74,34.74,0,0,0,9.56-4.27l0,0C203,238.44,225.88,204.39,205,177.18Z" transform="translate(-10.77 -10.72)"/><path class="cls-3" d="M217.08,110.05c-2.14.73-4.9.69-8.24-.12a2.39,2.39,0,1,1,1.13-4.64c3.21.78,5.54.66,6.53-.34s.79-3.18.66-3.7c-1.88-9.66-13.9-11.86-18-11.88a62.39,62.39,0,0,1-11.6-1.69c-3.35-.67-7.16-1.44-11.6-2.07a13.83,13.83,0,0,0-13.3,5.57,2.39,2.39,0,1,1-4-2.57,18.53,18.53,0,0,1,18-7.74c4.58.65,8.46,1.44,11.88,2.13a59.52,59.52,0,0,0,10.67,1.59c5.45,0,20.12,2.89,22.61,15.64.11.42,1.11,5-2,8.1A7.29,7.29,0,0,1,217.08,110.05Z" transform="translate(-10.77 -10.72)"/><path class="cls-8" d="M127.68,119.43A70.71,70.71,0,0,0,108.6,214.1a59.6,59.6,0,0,1,23.76-15.65,43.5,43.5,0,0,1,6.6-1.72,24.38,24.38,0,0,1,.35-10c1-3.8-.85-13.36-3.2-19.55-2.24-5.89-5.18-17.51-3.93-27.76a9.92,9.92,0,0,1-2.43-1.55c-2.24-2-5.55-6.76-2.61-16.82Q127.38,120.27,127.68,119.43Z" transform="translate(-10.77 -10.72)"/><path class="cls-4" d="M109.94,197a70.68,70.68,0,0,1,16.34-72.17,32.73,32.73,0,0,1,.86-3.78q.24-.81.54-1.65A70.71,70.71,0,0,0,108.6,214.1a62.26,62.26,0,0,1,6.31-5.84A71.38,71.38,0,0,1,109.94,197Z" transform="translate(-10.77 -10.72)"/><path class="cls-4" d="M136.4,197.29c.86-.21,1.72-.41,2.56-.56,0-.15,0-.31-.05-.46C138.07,196.59,137.23,196.92,136.4,197.29Z" transform="translate(-10.77 -10.72)"/><path class="cls-3" d="M198.69,115.46a9.14,9.14,0,0,0-1.2.55A9.14,9.14,0,0,1,198.69,115.46Z" transform="translate(-10.77 -10.72)"/><path class="cls-8" d="M235.53,154.12a70.32,70.32,0,0,0-24.93-34,43.88,43.88,0,0,1-9.24-.71,2.1,2.1,0,0,0-1,.11c-1.34.46-3.06,2-5,3.68a60.6,60.6,0,0,1-5.53,4.38c4.2,13.22,8.63,19,15.08,27.35a210.71,210.71,0,0,1,14.48,20.73c9.12,15,9.26,30.3,6.48,42.9A70.74,70.74,0,0,0,235.53,154.12Z" transform="translate(-10.77 -10.72)"/><path class="cls-4" d="M210.6,120.09a43.88,43.88,0,0,1-9.24-.71,2.1,2.1,0,0,0-1,.11,13.45,13.45,0,0,0-3.7,2.52,36.05,36.05,0,0,0,7.17.41,70.55,70.55,0,0,1,23.55,83.28,66.44,66.44,0,0,1-1.56,12.83,70.66,70.66,0,0,0-15.18-98.44Z" transform="translate(-10.77 -10.72)"/><path class="cls-3" d="M199.14,115.31a6.48,6.48,0,0,1,1-.22A6.48,6.48,0,0,0,199.14,115.31Z" transform="translate(-10.77 -10.72)"/><path class="cls-3" d="M184.6,125.65h0c.59,2,1.19,3.91,1.79,5.67C185.79,129.56,185.19,127.68,184.6,125.65Z" transform="translate(-10.77 -10.72)"/><path class="cls-3" d="M194.31,118.26c.38-.32.76-.62,1.13-.9C195.07,117.64,194.69,117.94,194.31,118.26Z" transform="translate(-10.77 -10.72)"/><path class="cls-3" d="M195.84,117.06a15.63,15.63,0,0,1,1.42-.93A15.63,15.63,0,0,0,195.84,117.06Z" transform="translate(-10.77 -10.72)"/><path class="cls-9" d="M177.21,80.58s9.45-12.44,10.46-14.25,3.74,1.56,3.38,4.7-2.77,11.21-2.77,11.21S177.81,82.74,177.21,80.58Z" transform="translate(-10.77 -10.72)"/></svg>